<svg xmlns="http://www.w3.org/2000/svg" width="1200" height="675" viewBox="0 0 1200 675">
  <defs>
    <linearGradient id="grad3" x1="0%" y1="0%" x2="100%" y2="0%">
      <stop offset="0%" style="stop-color:#667eea;stop-opacity:1" />
      <stop offset="100%" style="stop-color:#764ba2;stop-opacity:1" />
    </linearGradient>
  </defs>
  <rect width="1200" height="675" fill="#f8f9fa"/>
  <rect width="1200" height="60" fill="url(#grad3)"/>
  <circle cx="30" cy="30" r="15" fill="white" opacity="0.3"/>
  <text x="55" y="38" font-family="Arial" font-size="20" fill="white" font-weight="bold">GymMate Class Schedule</text>
  
  <g transform="translate(30, 100)">
    <rect width="1140" height="545" rx="8" fill="white" stroke="#e2e8f0" stroke-width="2"/>
    <text x="20" y="35" font-family="Arial" font-size="18" fill="#2d3748" font-weight="bold">Week of October 21-27, 2025</text>
    
    <rect x="20" y="60" width="150" height="40" rx="4" fill="#667eea" opacity="0.1"/>
    <text x="95" y="85" font-family="Arial" font-size="14" fill="#667eea" text-anchor="middle" font-weight="bold">MON 21</text>
    <rect x="180" y="60" width="150" height="40" rx="4" fill="#e2e8f0"/>
    <text x="255" y="85" font-family="Arial" font-size="14" fill="#4a5568" text-anchor="middle" font-weight="bold">TUE 22</text>
    <rect x="340" y="60" width="150" height="40" rx="4" fill="#667eea" opacity="0.8"/>
    <text x="415" y="85" font-family="Arial" font-size="14" fill="white" text-anchor="middle" font-weight="bold">WED 23 (TODAY)</text>
    <rect x="500" y="60" width="150" height="40" rx="4" fill="#e2e8f0"/>
    <text x="575" y="85" font-family="Arial" font-size="14" fill="#4a5568" text-anchor="middle" font-weight="bold">THU 24</text>
    <rect x="660" y="60" width="150" height="40" rx="4" fill="#e2e8f0"/>
    <text x="735" y="85" font-family="Arial" font-size="14" fill="#4a5568" text-anchor="middle" font-weight="bold">FRI 25</text>
    <rect x="820" y="60" width="150" height="40" rx="4" fill="#e2e8f0"/>
    <text x="895" y="85" font-family="Arial" font-size="14" fill="#4a5568" text-anchor="middle" font-weight="bold">SAT 26</text>
    <rect x="980" y="60" width="140" height="40" rx="4" fill="#e2e8f0"/>
    <text x="1050" y="85" font-family="Arial" font-size="14" fill="#4a5568" text-anchor="middle" font-weight="bold">SUN 27</text>
    
    <g transform="translate(30, 120)">
      <rect width="130" height="70" rx="6" fill="#9f7aea" opacity="0.2" stroke="#9f7aea" stroke-width="2"/>
      <text x="10" y="20" font-family="Arial" font-size="12" fill="#2d3748" font-weight="bold">6 AM - Yoga Flow</text>
      <text x="10" y="38" font-family="Arial" font-size="10" fill="#6b46c1">Sarah Kim</text>
      <text x="10" y="52" font-family="Arial" font-size="10" fill="#6b46c1">12/20 spots</text>
    </g>
    
    <g transform="translate(350, 120)">
      <rect width="130" height="70" rx="6" fill="#9f7aea" opacity="0.3" stroke="#9f7aea" stroke-width="2"/>
      <text x="10" y="20" font-family="Arial" font-size="12" fill="#2d3748" font-weight="bold">6 AM - Yoga</text>
      <text x="10" y="38" font-family="Arial" font-size="10" fill="#6b46c1">Sarah Kim</text>
      <text x="10" y="52" font-family="Arial" font-size="10" fill="#6b46c1">20/20 FULL</text>
    </g>
    
    <g transform="translate(190, 210)">
      <rect width="130" height="70" rx="6" fill="#48bb78" opacity="0.2" stroke="#48bb78" stroke-width="2"/>
      <text x="10" y="20" font-family="Arial" font-size="12" fill="#2d3748" font-weight="bold">9 AM - Spin</text>
      <text x="10" y="38" font-family="Arial" font-size="10" fill="#2f855a">Emma Davis</text>
      <text x="10" y="52" font-family="Arial" font-size="10" fill="#2f855a">15/20 spots</text>
    </g>
    
    <g transform="translate(350, 210)">
      <rect width="130" height="70" rx="6" fill="#4299e1" opacity="0.25" stroke="#4299e1" stroke-width="2"/>
      <text x="10" y="20" font-family="Arial" font-size="12" fill="#2d3748" font-weight="bold">9 AM - Pilates</text>
      <text x="10" y="38" font-family="Arial" font-size="10" fill="#2c5282">Lisa Chen</text>
      <text x="10" y="52" font-family="Arial" font-size="10" fill="#2c5282">10/15 LIVE</text>
    </g>
    
    <g transform="translate(670, 210)">
      <rect width="130" height="70" rx="6" fill="#f56565" opacity="0.2" stroke="#f56565" stroke-width="2"/>
      <text x="10" y="20" font-family="Arial" font-size="12" fill="#2d3748" font-weight="bold">9 AM - HIIT</text>
      <text x="10" y="38" font-family="Arial" font-size="10" fill="#c53030">Mike Johnson</text>
      <text x="10" y="52" font-family="Arial" font-size="10" fill="#c53030">17/25 spots</text>
    </g>
    
    <g transform="translate(350, 300)">
      <rect width="130" height="70" rx="6" fill="#f56565" opacity="0.2" stroke="#f56565" stroke-width="2"/>
      <text x="10" y="20" font-family="Arial" font-size="12" fill="#2d3748" font-weight="bold">3 PM - HIIT</text>
      <text x="10" y="38" font-family="Arial" font-size="10" fill="#c53030">Mike Johnson</text>
      <text x="10" y="52" font-family="Arial" font-size="10" fill="#c53030">22/25 spots</text>
    </g>
    
    <g transform="translate(30, 390)">
      <rect width="130" height="70" rx="6" fill="#f56565" opacity="0.2" stroke="#f56565" stroke-width="2"/>
      <text x="10" y="20" font-family="Arial" font-size="12" fill="#2d3748" font-weight="bold">6 PM - HIIT</text>
      <text x="10" y="38" font-family="Arial" font-size="10" fill="#c53030">Mike Johnson</text>
      <text x="10" y="52" font-family="Arial" font-size="10" fill="#c53030">18/25 spots</text>
    </g>
    
    <g transform="translate(350, 390)">
      <rect width="130" height="70" rx="6" fill="#48bb78" opacity="0.2" stroke="#48bb78" stroke-width="2"/>
      <text x="10" y="20" font-family="Arial" font-size="12" fill="#2d3748" font-weight="bold">6 PM - Spin</text>
      <text x="10" y="38" font-family="Arial" font-size="10" fill="#2f855a">Emma Davis</text>
      <text x="10" y="52" font-family="Arial" font-size="10" fill="#2f855a">14/20 spots</text>
    </g>
    
    <g transform="translate(830, 210)">
      <rect width="130" height="70" rx="6" fill="#48bb78" opacity="0.2" stroke="#48bb78" stroke-width="2"/>
      <text x="10" y="20" font-family="Arial" font-size="12" fill="#2d3748" font-weight="bold">9 AM - Spin</text>
      <text x="10" y="38" font-family="Arial" font-size="10" fill="#2f855a">Emma Davis</text>
      <text x="10" y="52" font-family="Arial" font-size="10" fill="#2f855a">19/20 spots</text>
    </g>
  </g>
</svg>
