<svg xmlns="http://www.w3.org/2000/svg" viewBox="0 0 1200 675" width="1200" height="675">
  <defs>
    <linearGradient id="grad1" x1="0%" y1="0%" x2="100%" y2="100%">
      <stop offset="0%" style="stop-color:#0d6efd;stop-opacity:1" />
      <stop offset="100%" style="stop-color:#0b5ed7;stop-opacity:1" />
    </linearGradient>
  </defs>
  
  <!-- Background -->
  <rect width="1200" height="675" fill="#f8f9fa"/>
  
  <!-- Browser Chrome -->
  <rect width="1200" height="40" fill="#e9ecef"/>
  <circle cx="20" cy="20" r="6" fill="#ff5f56"/>
  <circle cx="40" cy="20" r="6" fill="#ffbd2e"/>
  <circle cx="60" cy="20" r="6" fill="#27c93f"/>
  
  <!-- Header -->
  <rect y="40" width="1200" height="80" fill="url(#grad1)"/>
  <text x="60" y="95" font-family="Arial, sans-serif" font-size="28" font-weight="bold" fill="white">Dashboard Overview</text>
  
  <!-- Sidebar -->
  <rect y="120" width="250" height="555" fill="#212529"/>
  
  <!-- Sidebar Menu Items -->
  <rect x="20" y="140" width="210" height="40" rx="5" fill="#0d6efd"/>
  <text x="40" y="167" font-family="Arial, sans-serif" font-size="14" fill="white">📊 Dashboard</text>
  
  <rect x="20" y="190" width="210" height="40" rx="5" fill="#343a40"/>
  <text x="40" y="217" font-family="Arial, sans-serif" font-size="14" fill="#adb5bd">👥 Members</text>
  
  <rect x="20" y="240" width="210" height="40" rx="5" fill="#343a40"/>
  <text x="40" y="267" font-family="Arial, sans-serif" font-size="14" fill="#adb5bd">💪 Trainers</text>
  
  <rect x="20" y="290" width="210" height="40" rx="5" fill="#343a40"/>
  <text x="40" y="317" font-family="Arial, sans-serif" font-size="14" fill="#adb5bd">📅 Classes</text>
  
  <rect x="20" y="340" width="210" height="40" rx="5" fill="#343a40"/>
  <text x="40" y="367" font-family="Arial, sans-serif" font-size="14" fill="#adb5bd">💰 Payments</text>
  
  <!-- Main Content Area -->
  <!-- Stats Cards -->
  <g transform="translate(280, 150)">
    <!-- Total Members Card -->
    <rect width="200" height="120" rx="10" fill="white" stroke="#dee2e6" stroke-width="1"/>
    <text x="20" y="30" font-family="Arial, sans-serif" font-size="14" fill="#6c757d">Total Members</text>
    <text x="20" y="70" font-family="Arial, sans-serif" font-size="36" font-weight="bold" fill="#0d6efd">1,234</text>
    <text x="20" y="100" font-family="Arial, sans-serif" font-size="12" fill="#28a745">↑ 12% this month</text>
  </g>
  
  <g transform="translate(510, 150)">
    <!-- Active Classes Card -->
    <rect width="200" height="120" rx="10" fill="white" stroke="#dee2e6" stroke-width="1"/>
    <text x="20" y="30" font-family="Arial, sans-serif" font-size="14" fill="#6c757d">Active Classes</text>
    <text x="20" y="70" font-family="Arial, sans-serif" font-size="36" font-weight="bold" fill="#198754">48</text>
    <text x="20" y="100" font-family="Arial, sans-serif" font-size="12" fill="#28a745">↑ 5 new classes</text>
  </g>
  
  <g transform="translate(740, 150)">
    <!-- Revenue Card -->
    <rect width="200" height="120" rx="10" fill="white" stroke="#dee2e6" stroke-width="1"/>
    <text x="20" y="30" font-family="Arial, sans-serif" font-size="14" fill="#6c757d">Monthly Revenue</text>
    <text x="20" y="70" font-family="Arial, sans-serif" font-size="36" font-weight="bold" fill="#ffc107">$45K</text>
    <text x="20" y="100" font-family="Arial, sans-serif" font-size="12" fill="#28a745">↑ 18% increase</text>
  </g>
  
  <g transform="translate(970, 150)">
    <!-- Attendance Card -->
    <rect width="200" height="120" rx="10" fill="white" stroke="#dee2e6" stroke-width="1"/>
    <text x="20" y="30" font-family="Arial, sans-serif" font-size="14" fill="#6c757d">Today's Attendance</text>
    <text x="20" y="70" font-family="Arial, sans-serif" font-size="36" font-weight="bold" fill="#dc3545">187</text>
    <text x="20" y="100" font-family="Arial, sans-serif" font-size="12" fill="#28a745">↑ 95% capacity</text>
  </g>
  
  <!-- Chart Area -->
  <g transform="translate(280, 300)">
    <rect width="670" height="350" rx="10" fill="white" stroke="#dee2e6" stroke-width="1"/>
    <text x="20" y="30" font-family="Arial, sans-serif" font-size="16" font-weight="bold" fill="#212529">Membership Growth</text>
    
    <!-- Simple Line Chart -->
    <polyline points="40,300 100,280 160,260 220,270 280,240 340,220 400,210 460,200 520,190 580,170 640,150" 
              fill="none" stroke="#0d6efd" stroke-width="3"/>
    
    <!-- Chart Grid -->
    <line x1="40" y1="150" x2="640" y2="150" stroke="#e9ecef" stroke-width="1"/>
    <line x1="40" y1="200" x2="640" y2="200" stroke="#e9ecef" stroke-width="1"/>
    <line x1="40" y1="250" x2="640" y2="250" stroke="#e9ecef" stroke-width="1"/>
    <line x1="40" y1="300" x2="640" y2="300" stroke="#e9ecef" stroke-width="1"/>
    
    <!-- X-axis labels -->
    <text x="40" y="330" font-family="Arial, sans-serif" font-size="10" fill="#6c757d">Jan</text>
    <text x="160" y="330" font-family="Arial, sans-serif" font-size="10" fill="#6c757d">Mar</text>
    <text x="280" y="330" font-family="Arial, sans-serif" font-size="10" fill="#6c757d">May</text>
    <text x="400" y="330" font-family="Arial, sans-serif" font-size="10" fill="#6c757d">Jul</text>
    <text x="520" y="330" font-family="Arial, sans-serif" font-size="10" fill="#6c757d">Sep</text>
    <text x="620" y="330" font-family="Arial, sans-serif" font-size="10" fill="#6c757d">Nov</text>
  </g>
  
  <!-- Recent Activity Panel -->
  <g transform="translate(980, 300)">
    <rect width="190" height="350" rx="10" fill="white" stroke="#dee2e6" stroke-width="1"/>
    <text x="15" y="30" font-family="Arial, sans-serif" font-size="14" font-weight="bold" fill="#212529">Recent Activity</text>
    
    <!-- Activity Items -->
    <circle cx="25" cy="60" r="8" fill="#0d6efd"/>
    <text x="40" y="65" font-family="Arial, sans-serif" font-size="11" fill="#495057">New member joined</text>
    
    <circle cx="25" cy="100" r="8" fill="#198754"/>
    <text x="40" y="105" font-family="Arial, sans-serif" font-size="11" fill="#495057">Payment received</text>
    
    <circle cx="25" cy="140" r="8" fill="#ffc107"/>
    <text x="40" y="145" font-family="Arial, sans-serif" font-size="11" fill="#495057">Class scheduled</text>
    
    <circle cx="25" cy="180" r="8" fill="#0d6efd"/>
    <text x="40" y="185" font-family="Arial, sans-serif" font-size="11" fill="#495057">Trainer added</text>
    
    <circle cx="25" cy="220" r="8" fill="#dc3545"/>
    <text x="40" y="225" font-family="Arial, sans-serif" font-size="11" fill="#495057">Membership expiring</text>
  </g>
  
  <!-- Watermark -->
  <text x="600" y="660" font-family="Arial, sans-serif" font-size="12" fill="#adb5bd" text-anchor="middle">Gym Management System</text>
</svg>
