<svg xmlns="http://www.w3.org/2000/svg" viewBox="0 0 1200 675" width="1200" height="675">
  <defs>
    <linearGradient id="grad4" x1="0%" y1="0%" x2="100%" y2="100%">
      <stop offset="0%" style="stop-color:#6f42c1;stop-opacity:1" />
      <stop offset="100%" style="stop-color:#5a32a3;stop-opacity:1" />
    </linearGradient>
  </defs>
  
  <!-- Background -->
  <rect width="1200" height="675" fill="#f8f9fa"/>
  
  <!-- Browser Chrome -->
  <rect width="1200" height="40" fill="#e9ecef"/>
  <circle cx="20" cy="20" r="6" fill="#ff5f56"/>
  <circle cx="40" cy="20" r="6" fill="#ffbd2e"/>
  <circle cx="60" cy="20" r="6" fill="#27c93f"/>
  
  <!-- Header -->
  <rect y="40" width="1200" height="80" fill="url(#grad4)"/>
  <text x="60" y="95" font-family="Arial, sans-serif" font-size="28" font-weight="bold" fill="white">Payment & Billing</text>
  <rect x="1030" y="60" width="140" height="40" rx="5" fill="white"/>
  <text x="1045" y="87" font-family="Arial, sans-serif" font-size="14" font-weight="bold" fill="#6f42c1">+ Record Payment</text>
  
  <!-- Sidebar -->
  <rect y="120" width="250" height="555" fill="#212529"/>
  
  <!-- Sidebar Menu Items -->
  <rect x="20" y="140" width="210" height="40" rx="5" fill="#343a40"/>
  <text x="40" y="167" font-family="Arial, sans-serif" font-size="14" fill="#adb5bd">📊 Dashboard</text>
  
  <rect x="20" y="190" width="210" height="40" rx="5" fill="#343a40"/>
  <text x="40" y="217" font-family="Arial, sans-serif" font-size="14" fill="#adb5bd">👥 Members</text>
  
  <rect x="20" y="240" width="210" height="40" rx="5" fill="#343a40"/>
  <text x="40" y="267" font-family="Arial, sans-serif" font-size="14" fill="#adb5bd">💪 Trainers</text>
  
  <rect x="20" y="290" width="210" height="40" rx="5" fill="#343a40"/>
  <text x="40" y="317" font-family="Arial, sans-serif" font-size="14" fill="#adb5bd">📅 Classes</text>
  
  <rect x="20" y="340" width="210" height="40" rx="5" fill="#6f42c1"/>
  <text x="40" y="367" font-family="Arial, sans-serif" font-size="14" fill="white">💰 Payments</text>
  
  <!-- Revenue Summary Cards -->
  <g transform="translate(280, 150)">
    <!-- Today's Revenue -->
    <rect width="280" height="100" rx="10" fill="white" stroke="#dee2e6" stroke-width="1"/>
    <text x="20" y="30" font-family="Arial, sans-serif" font-size="14" fill="#6c757d">Today's Revenue</text>
    <text x="20" y="65" font-family="Arial, sans-serif" font-size="32" font-weight="bold" fill="#28a745">$2,450</text>
    <text x="20" y="85" font-family="Arial, sans-serif" font-size="12" fill="#28a745">↑ 15 payments</text>
  </g>
  
  <g transform="translate(590, 150)">
    <!-- This Month -->
    <rect width="280" height="100" rx="10" fill="white" stroke="#dee2e6" stroke-width="1"/>
    <text x="20" y="30" font-family="Arial, sans-serif" font-size="14" fill="#6c757d">This Month</text>
    <text x="20" y="65" font-family="Arial, sans-serif" font-size="32" font-weight="bold" fill="#0d6efd">$45,890</text>
    <text x="20" y="85" font-family="Arial, sans-serif" font-size="12" fill="#28a745">↑ 18% vs last month</text>
  </g>
  
  <g transform="translate(900, 150)">
    <!-- Pending Payments -->
    <rect width="270" height="100" rx="10" fill="white" stroke="#dee2e6" stroke-width="1"/>
    <text x="20" y="30" font-family="Arial, sans-serif" font-size="14" fill="#6c757d">Pending Payments</text>
    <text x="20" y="65" font-family="Arial, sans-serif" font-size="32" font-weight="bold" fill="#ffc107">$3,200</text>
    <text x="20" y="85" font-family="Arial, sans-serif" font-size="12" fill="#dc3545">8 overdue</text>
  </g>
  
  <!-- Filters -->
  <g transform="translate(280, 280)">
    <rect width="200" height="45" rx="5" fill="white" stroke="#dee2e6" stroke-width="1"/>
    <text x="15" y="28" font-family="Arial, sans-serif" font-size="14" fill="#6c757d">Filter: All Types ▼</text>
    
    <rect x="220" width="200" height="45" rx="5" fill="white" stroke="#dee2e6" stroke-width="1"/>
    <text x="235" y="28" font-family="Arial, sans-serif" font-size="14" fill="#6c757d">Date: This Month ▼</text>
    
    <rect x="440" width="200" height="45" rx="5" fill="white" stroke="#dee2e6" stroke-width="1"/>
    <text x="455" y="28" font-family="Arial, sans-serif" font-size="14" fill="#6c757d">Status: All ▼</text>
    
    <rect x="660" width="150" height="45" rx="5" fill="#0d6efd"/>
    <text x="685" y="28" font-family="Arial, sans-serif" font-size="14" font-weight="bold" fill="white">Export 📥</text>
  </g>
  
  <!-- Payments Table -->
  <g transform="translate(280, 350)">
    <rect width="890" height="280" rx="10" fill="white" stroke="#dee2e6" stroke-width="1"/>
    
    <!-- Table Header -->
    <rect width="890" height="45" rx="10" fill="#f8f9fa"/>
    <text x="20" y="28" font-family="Arial, sans-serif" font-size="12" font-weight="bold" fill="#495057">DATE</text>
    <text x="150" y="28" font-family="Arial, sans-serif" font-size="12" font-weight="bold" fill="#495057">MEMBER</text>
    <text x="350" y="28" font-family="Arial, sans-serif" font-size="12" font-weight="bold" fill="#495057">TYPE</text>
    <text x="530" y="28" font-family="Arial, sans-serif" font-size="12" font-weight="bold" fill="#495057">AMOUNT</text>
    <text x="650" y="28" font-family="Arial, sans-serif" font-size="12" font-weight="bold" fill="#495057">METHOD</text>
    <text x="790" y="28" font-family="Arial, sans-serif" font-size="12" font-weight="bold" fill="#495057">STATUS</text>
    
    <!-- Row 1 -->
    <line x1="0" y1="45" x2="890" y2="45" stroke="#dee2e6" stroke-width="1"/>
    <text x="20" y="75" font-family="Arial, sans-serif" font-size="13" fill="#495057">Oct 25, 2025</text>
    <text x="150" y="75" font-family="Arial, sans-serif" font-size="13" fill="#212529">John Doe</text>
    <text x="350" y="75" font-family="Arial, sans-serif" font-size="13" fill="#495057">Monthly Membership</text>
    <text x="530" y="75" font-family="Arial, sans-serif" font-size="13" font-weight="bold" fill="#28a745">$129.00</text>
    <text x="650" y="75" font-family="Arial, sans-serif" font-size="13" fill="#495057">Credit Card</text>
    <rect x="785" y="60" width="80" height="22" rx="11" fill="#d1e7dd"/>
    <text x="800" y="76" font-family="Arial, sans-serif" font-size="11" fill="#0f5132">Completed</text>
    
    <!-- Row 2 -->
    <line x1="0" y1="95" x2="890" y2="95" stroke="#dee2e6" stroke-width="1"/>
    <text x="20" y="125" font-family="Arial, sans-serif" font-size="13" fill="#495057">Oct 25, 2025</text>
    <text x="150" y="125" font-family="Arial, sans-serif" font-size="13" fill="#212529">Sarah Anderson</text>
    <text x="350" y="125" font-family="Arial, sans-serif" font-size="13" fill="#495057">Personal Training</text>
    <text x="530" y="125" font-family="Arial, sans-serif" font-size="13" font-weight="bold" fill="#28a745">$75.00</text>
    <text x="650" y="125" font-family="Arial, sans-serif" font-size="13" fill="#495057">Cash</text>
    <rect x="785" y="110" width="80" height="22" rx="11" fill="#d1e7dd"/>
    <text x="800" y="126" font-family="Arial, sans-serif" font-size="11" fill="#0f5132">Completed</text>
    
    <!-- Row 3 -->
    <line x1="0" y1="145" x2="890" y2="145" stroke="#dee2e6" stroke-width="1"/>
    <text x="20" y="175" font-family="Arial, sans-serif" font-size="13" fill="#495057">Oct 24, 2025</text>
    <text x="150" y="175" font-family="Arial, sans-serif" font-size="13" fill="#212529">Mike Chen</text>
    <text x="350" y="175" font-family="Arial, sans-serif" font-size="13" fill="#495057">Annual Membership</text>
    <text x="530" y="175" font-family="Arial, sans-serif" font-size="13" font-weight="bold" fill="#28a745">$1,299.00</text>
    <text x="650" y="175" font-family="Arial, sans-serif" font-size="13" fill="#495057">Bank Transfer</text>
    <rect x="785" y="160" width="80" height="22" rx="11" fill="#fff3cd"/>
    <text x="800" y="176" font-family="Arial, sans-serif" font-size="11" fill="#856404">Pending</text>
    
    <!-- Row 4 -->
    <line x1="0" y1="195" x2="890" y2="195" stroke="#dee2e6" stroke-width="1"/>
    <text x="20" y="225" font-family="Arial, sans-serif" font-size="13" fill="#495057">Oct 23, 2025</text>
    <text x="150" y="225" font-family="Arial, sans-serif" font-size="13" fill="#212529">Emma Davis</text>
    <text x="350" y="225" font-family="Arial, sans-serif" font-size="13" fill="#495057">Monthly Membership</text>
    <text x="530" y="225" font-family="Arial, sans-serif" font-size="13" font-weight="bold" fill="#28a745">$89.00</text>
    <text x="650" y="225" font-family="Arial, sans-serif" font-size="13" fill="#495057">Credit Card</text>
    <rect x="785" y="210" width="80" height="22" rx="11" fill="#d1e7dd"/>
    <text x="800" y="226" font-family="Arial, sans-serif" font-size="11" fill="#0f5132">Completed</text>
    
    <!-- Row 5 -->
    <line x1="0" y1="245" x2="890" y2="245" stroke="#dee2e6" stroke-width="1"/>
    <text x="20" y="270" font-family="Arial, sans-serif" font-size="13" fill="#495057">Oct 22, 2025</text>
    <text x="150" y="270" font-family="Arial, sans-serif" font-size="13" fill="#212529">Robert Johnson</text>
    <text x="350" y="270" font-family="Arial, sans-serif" font-size="13" fill="#495057">Class Package</text>
    <text x="530" y="270" font-family="Arial, sans-serif" font-size="13" font-weight="bold" fill="#dc3545">$150.00</text>
    <text x="650" y="270" font-family="Arial, sans-serif" font-size="13" fill="#495057">-</text>
    <rect x="785" y="255" width="80" height="22" rx="11" fill="#f8d7da"/>
    <text x="802" y="271" font-family="Arial, sans-serif" font-size="11" fill="#721c24">Overdue</text>
  </g>
  
  <!-- Quick Actions Panel -->
  <g transform="translate(280, 645)">
    <text x="0" y="0" font-family="Arial, sans-serif" font-size="14" fill="#495057">Quick Actions:</text>
    <rect x="120" width="140" height="35" rx="5" fill="#0d6efd"/>
    <text x="140" y="23" font-family="Arial, sans-serif" font-size="13" fill="white">Process Payment</text>
    
    <rect x="275" width="140" height="35" rx="5" fill="#198754"/>
    <text x="295" y="23" font-family="Arial, sans-serif" font-size="13" fill="white">Send Invoice</text>
    
    <rect x="430" width="140" height="35" rx="5" fill="#ffc107"/>
    <text x="445" y="23" font-family="Arial, sans-serif" font-size="13" fill="#212529">Send Reminder</text>
  </g>
  
  <!-- Watermark -->
  <text x="600" y="660" font-family="Arial, sans-serif" font-size="12" fill="#adb5bd" text-anchor="middle">Gym Management System - Payment & Billing</text>
</svg>
